<svg width="141" height="36" viewBox="0 0 141 36" fill="none" xmlns="http://www.w3.org/2000/svg">
<path fill-rule="evenodd" clip-rule="evenodd" d="M35.5393 18.7409L32.8836 16.0795C32.6731 15.8685 32.5548 15.5824 32.5548 15.284V12.0281C32.5548 9.01924 32.2422 7.92814 31.6552 6.82814C31.0682 5.72814 30.2068 4.86486 29.1091 4.27657C28.0115 3.68829 26.9227 3.375 23.9203 3.375H19.6259C19.5019 3.375 19.4014 3.27427 19.4014 3.15C19.4014 3.09033 19.425 3.0331 19.4671 2.9909L22.1228 0.329506C22.3333 0.118527 22.6189 0 22.9166 0H24.4099C28.4131 0 29.8648 0.417717 31.3283 1.2021C32.7918 1.98648 33.9404 3.13753 34.7231 4.60419C35.5058 6.07086 35.9226 7.52565 35.9226 11.5375V18.5818C35.9226 18.7061 35.8221 18.8068 35.6981 18.8068C35.6385 18.8068 35.5814 18.7831 35.5393 18.7409ZM17.222 35.6159L19.8777 32.9545C20.0882 32.7435 20.3737 32.625 20.6714 32.625H23.9203C26.9227 32.625 28.0115 32.3117 29.1091 31.7234C30.2068 31.1351 31.0682 30.2719 31.6552 29.1719C32.2422 28.0719 32.5548 26.9808 32.5548 23.9719V19.6682C32.5548 19.5439 32.6554 19.4432 32.7794 19.4432C32.8389 19.4432 32.896 19.4669 32.9381 19.5091L35.5938 22.1705C35.8043 22.3815 35.9226 22.6676 35.9226 22.966V24.4625C35.9226 28.4743 35.5058 29.9291 34.7231 31.3958C33.9404 32.8625 32.7918 34.0135 31.3283 34.7979C29.8648 35.5823 28.4131 36 24.4099 36H17.3807C17.2567 36 17.1562 35.8993 17.1562 35.775C17.1562 35.7153 17.1799 35.6581 17.222 35.6159ZM0.383274 17.2591L3.03894 19.9205C3.24947 20.1315 3.36774 20.4176 3.36774 20.716V23.9719C3.36774 26.9808 3.68035 28.0719 4.26738 29.1719C4.8544 30.2719 5.71583 31.1351 6.81346 31.7234C7.9111 32.3117 8.99984 32.625 12.0022 32.625H16.2967C16.4207 32.625 16.5212 32.7257 16.5212 32.85C16.5212 32.9097 16.4975 32.9669 16.4554 33.0091L13.7998 35.6705C13.5892 35.8815 13.3037 36 13.006 36H11.5127C7.50947 36 6.0578 35.5823 4.59429 34.7979C3.13078 34.0135 1.98221 32.8625 1.19951 31.3958C0.416817 29.9291 0 28.4743 0 24.4625V17.4182C0 17.2939 0.100521 17.1932 0.224518 17.1932C0.284063 17.1932 0.341169 17.2169 0.383274 17.2591ZM16.0449 3.04549C15.8344 3.25647 15.5489 3.375 15.2511 3.375H12.0022C8.99984 3.375 7.9111 3.68829 6.81346 4.27657C5.71583 4.86486 4.8544 5.72814 4.26738 6.82814C3.68035 7.92814 3.36774 9.01924 3.36774 12.0281V16.3318C3.36774 16.4561 3.26722 16.5568 3.14323 16.5568C3.08368 16.5568 3.02658 16.5331 2.98447 16.4909L0.328796 13.8295C0.118272 13.6185 0 13.3324 0 13.034V11.5375C0 7.52565 0.416817 6.07086 1.19951 4.60419C1.98221 3.13753 3.13078 1.98648 4.59429 1.2021C6.0578 0.417717 7.50947 0 11.5127 0H18.5418C18.6658 0 18.7664 0.100734 18.7664 0.224998C18.7664 0.284672 18.7427 0.341902 18.7006 0.384098L16.0449 3.04549ZM29.93 13.1364L26.3088 9.66804C26.0693 9.42806 25.7892 9.25362 25.4907 9.14473C25.2439 9.05119 24.9763 9 24.6968 9H14.0105C13.8865 9 13.786 8.89927 13.786 8.775C13.786 8.71529 13.8097 8.65803 13.8518 8.61583L16.51 5.95417C16.7205 5.7434 17.0059 5.625 17.3034 5.625H25.8194C28.2993 5.625 30.3097 7.63972 30.3097 10.125V12.9737C30.3097 13.098 30.2092 13.1987 30.0852 13.1987C30.0274 13.1987 29.9718 13.1764 29.93 13.1364ZM22.8144 29.9974L26.2753 26.3683C26.5148 26.1284 26.6889 25.8477 26.7975 25.5485C26.8909 25.3011 26.9419 25.033 26.9419 24.7528V14.0435C26.9419 13.9193 27.0425 13.8185 27.1665 13.8185C27.226 13.8185 27.2832 13.8423 27.3253 13.8845L29.9812 16.5484C30.1915 16.7593 30.3097 17.0454 30.3097 17.3436V25.8778C30.3097 28.3631 28.2993 30.3778 25.8194 30.3778H22.9768C22.8528 30.3778 22.7522 30.2771 22.7522 30.1528C22.7522 30.0949 22.7745 30.0392 22.8144 29.9974ZM5.99254 22.8636L9.61378 26.332C9.85324 26.5719 10.1333 26.7464 10.4319 26.8553C10.6787 26.9488 10.9463 27 11.2258 27H21.9121C22.0361 27 22.1366 27.1007 22.1366 27.225C22.1366 27.2847 22.1129 27.342 22.0708 27.3842L19.4126 30.0458C19.2021 30.2566 18.9167 30.375 18.6192 30.375H10.1032C7.62329 30.375 5.6129 28.3603 5.6129 25.875V23.0263C5.6129 22.902 5.71342 22.8013 5.83742 22.8013C5.8952 22.8013 5.95077 22.8236 5.99254 22.8636ZM52.9218 10.026C53.9682 10.026 54.9098 10.2198 55.7469 10.6076C56.584 10.9953 57.2974 11.5272 57.8871 12.2032C58.4768 12.8792 58.9239 13.6746 59.2283 14.5892C59.5327 15.5038 59.6849 16.4881 59.6849 17.5419C59.6849 18.5957 59.5232 19.5799 59.1998 20.4946C58.8763 21.4092 58.4245 22.2045 57.8443 22.8806C57.2641 23.5566 56.5649 24.0885 55.7469 24.4762C54.9289 24.8639 54.0347 25.0578 53.0645 25.0578C52.4177 25.0578 51.847 24.9882 51.3524 24.849C50.8577 24.7098 50.4202 24.5309 50.0397 24.3122C49.6592 24.0935 49.3358 23.8598 49.0695 23.6113C48.8031 23.3627 48.5844 23.1192 48.4132 22.8806C48.3659 22.8806 48.3275 22.9189 48.3275 22.9662V30.1896C48.3275 30.9133 47.7409 31.5 47.0172 31.5H46.2136C45.4899 31.5 44.9032 30.9133 44.9032 30.1896V11.6943C44.9032 10.9706 45.4899 10.3839 46.2136 10.3839H47.0826C47.6756 10.3839 48.1563 10.8646 48.1563 11.4576V12.4742C48.1563 12.4952 48.1677 12.5136 48.1846 12.5235L48.2134 12.5313C48.708 11.6564 49.3739 11.0202 50.2109 10.6225C51.048 10.2248 51.9516 10.026 52.9218 10.026ZM87.3933 10.026C88.3064 10.026 89.2101 10.19 90.1042 10.5181C90.428 10.6369 90.7892 10.8569 91.1878 11.178C91.7513 11.6321 91.84 12.457 91.3859 13.0205C91.3482 13.0674 91.3073 13.1116 91.2634 13.1528L90.8367 13.5543C90.3761 13.9874 89.672 14.03 89.1626 13.6555C88.4678 13.1446 87.8495 12.8892 87.3077 12.8892C86.8511 12.8892 86.4041 13.0085 85.9665 13.2471C85.529 13.4857 85.3102 13.8734 85.3102 14.4103C85.3102 14.8477 85.4909 15.1658 85.8524 15.3647C86.2138 15.5635 86.6704 15.7325 87.2221 15.8717C87.7738 16.0109 88.3683 16.155 89.0056 16.3041C89.6429 16.4533 90.2374 16.6819 90.7891 16.9901C91.3408 17.2983 91.7974 17.7208 92.1588 18.2577C92.5203 18.7945 92.701 19.5302 92.701 20.4647C92.701 21.3197 92.525 22.0405 92.1731 22.6271C91.8211 23.2136 91.3646 23.6858 90.8033 24.0437C90.2421 24.4016 89.6096 24.6601 88.9057 24.8192C88.2018 24.9783 87.4979 25.0578 86.7941 25.0578C85.7287 25.0578 84.749 24.8987 83.8548 24.5806C83.5047 24.456 83.0846 24.2057 82.5944 23.8295C82.0203 23.389 81.912 22.5664 82.3526 21.9923C82.3901 21.9434 82.431 21.8972 82.475 21.854L82.8302 21.506C83.3204 21.0257 84.0981 21.005 84.6132 21.4585C84.8209 21.6413 85.0009 21.7823 85.1532 21.8814C85.6574 22.2095 86.2709 22.3735 86.9938 22.3735C87.2411 22.3735 87.4979 22.3437 87.7643 22.2841C88.0306 22.2244 88.2779 22.125 88.5062 21.9858C88.7345 21.8466 88.92 21.6727 89.0627 21.4639C89.2053 21.2551 89.2767 21.0115 89.2767 20.7332C89.2767 20.2361 89.096 19.8682 88.7345 19.6296C88.373 19.391 87.9165 19.1972 87.3648 19.048C86.8131 18.8989 86.2186 18.7597 85.5813 18.6305C84.944 18.5013 84.3495 18.2925 83.7978 18.0042C83.2461 17.7159 82.7895 17.3132 82.428 16.7963C82.0666 16.2793 81.8858 15.5635 81.8858 14.6489C81.8858 13.8535 82.0428 13.1626 82.3567 12.576C82.6706 11.9895 83.0844 11.5073 83.598 11.1295C84.1117 10.7517 84.7014 10.4734 85.3672 10.2944C86.0331 10.1155 86.7084 10.026 87.3933 10.026ZM135.648 10.026C136.523 10.026 137.403 10.2 138.287 10.5479C138.624 10.6805 139.022 10.9176 139.48 11.2592C140.061 11.6917 140.18 12.5126 139.748 13.0929C139.716 13.1359 139.681 13.177 139.644 13.2157L139.115 13.7689C138.649 14.2555 137.891 14.3099 137.361 13.8949C137.22 13.7846 137.096 13.6979 136.989 13.6348C136.551 13.3763 136.104 13.2471 135.648 13.2471C135.02 13.2471 134.459 13.3664 133.964 13.605C133.469 13.8436 133.046 14.1617 132.694 14.5594C132.342 14.9571 132.076 15.4144 131.895 15.9313C131.714 16.4483 131.624 16.9852 131.624 17.5419C131.624 18.0986 131.714 18.6355 131.895 19.1524C132.076 19.6694 132.342 20.1267 132.694 20.5244C133.046 20.9221 133.469 21.2402 133.964 21.4788C134.459 21.7174 135.02 21.8367 135.648 21.8367C136.18 21.8367 136.675 21.7224 137.132 21.4937C137.224 21.4475 137.324 21.3846 137.432 21.3052C137.977 20.9045 138.737 20.9844 139.187 21.4897L139.708 22.0745C140.166 22.5892 140.12 23.3778 139.605 23.836L139.506 23.9152L139.4 23.9841C138.953 24.2426 138.501 24.4514 138.045 24.6104C137.588 24.7695 137.151 24.8838 136.732 24.9534C136.313 25.023 135.952 25.0578 135.648 25.0578C134.62 25.0578 133.65 24.8788 132.737 24.5209C131.824 24.163 131.034 23.656 130.368 22.9999C129.703 22.3437 129.175 21.5534 128.785 20.6288C128.395 19.7042 128.2 18.6752 128.2 17.5419C128.2 16.4085 128.395 15.3796 128.785 14.455C129.175 13.5304 129.703 12.7401 130.368 12.0839C131.034 11.4278 131.824 10.9207 132.737 10.5628C133.65 10.2049 134.62 10.026 135.648 10.026ZM70.8424 10.026C70.9819 10.026 71.1193 10.0348 71.2546 10.0525L71.4559 10.0856C71.8126 10.1566 72.0695 10.4697 72.0695 10.8333V12.7969C72.0695 13.1918 71.7494 13.5119 71.3545 13.5119L71.2908 13.5091L71.2277 13.5006C70.9518 13.4509 70.6807 13.426 70.4144 13.426C69.6154 13.426 68.9733 13.5801 68.4882 13.8883C68.0031 14.1965 67.6321 14.5494 67.3753 14.9471C67.1185 15.3448 66.9473 15.7424 66.8617 16.1401C66.7761 16.5378 66.7333 16.836 66.7333 17.0349V23.3895C66.7333 24.1132 66.1466 24.6999 65.4229 24.6999H64.6193C63.8956 24.6999 63.3089 24.1132 63.3089 23.3895V11.6943C63.3089 10.9706 63.8956 10.3839 64.6193 10.3839H65.5999C66.2258 10.3839 66.7333 10.8913 66.7333 11.5172V12.5935C66.7333 12.6145 66.7446 12.6329 66.7615 12.6428L66.7903 12.6506C67.1708 11.8155 67.713 11.1693 68.4169 10.712C69.1208 10.2546 69.9293 10.026 70.8424 10.026ZM77.0085 10.3839C77.7322 10.3839 78.3189 10.9706 78.3189 11.6943V23.3895C78.3189 24.1132 77.7322 24.6999 77.0085 24.6999H76.2049C75.4812 24.6999 74.8945 24.1132 74.8945 23.3895V11.6943C74.8945 10.9706 75.4812 10.3839 76.2049 10.3839H77.0085ZM111.934 10.026C112.847 10.026 113.618 10.185 114.246 10.5032C114.873 10.8213 115.382 11.2587 115.772 11.8155C116.162 12.3722 116.443 13.0234 116.614 13.769C116.785 14.5146 116.871 15.3149 116.871 16.1699V23.3895C116.871 24.1132 116.284 24.6999 115.561 24.6999H114.757C114.033 24.6999 113.447 24.1132 113.447 23.3895V16.5875C113.447 16.1501 113.409 15.7275 113.333 15.3199C113.256 14.9123 113.123 14.5544 112.933 14.2462C112.743 13.938 112.486 13.6945 112.163 13.5155C111.839 13.3366 111.421 13.2471 110.907 13.2471C110.374 13.2471 109.922 13.3515 109.551 13.5602C109.181 13.769 108.876 14.0474 108.638 14.3953C108.401 14.7433 108.229 15.141 108.125 15.5883C108.02 16.0357 107.968 16.4881 107.968 16.9454V23.3895C107.968 24.1132 107.381 24.6999 106.657 24.6999H105.854C105.13 24.6999 104.543 24.1132 104.543 23.3895V16.1699C104.543 15.2752 104.363 14.5644 104.001 14.0374C103.64 13.5105 103.041 13.2471 102.203 13.2471C101.633 13.2471 101.152 13.3465 100.762 13.5453C100.372 13.7442 100.049 14.0126 99.7922 14.3506C99.5354 14.6886 99.3499 15.0764 99.2357 15.5138C99.1216 15.9512 99.0645 16.4085 99.0645 16.8857V23.3895C99.0645 24.1132 98.4778 24.6999 97.7542 24.6999H96.9506C96.2269 24.6999 95.6402 24.1132 95.6402 23.3895V11.6943C95.6402 10.9706 96.2269 10.3839 96.9506 10.3839H97.5829C98.3066 10.3839 98.8933 10.9706 98.8933 11.6943V12.6208C99.2548 11.9447 99.7446 11.3433 100.42 10.8163C101.095 10.2894 102.004 10.026 103.145 10.026C105.295 10.026 106.722 10.9108 107.426 12.6804C107.92 11.7658 108.538 11.0947 109.28 10.6672C110.022 10.2397 110.907 10.026 111.934 10.026ZM123.208 10.3839C123.932 10.3839 124.519 10.9706 124.519 11.6943V23.3895C124.519 24.1132 123.932 24.6999 123.208 24.6999H122.405C121.681 24.6999 121.094 24.1132 121.094 23.3895V11.6943C121.094 10.9706 121.681 10.3839 122.405 10.3839H123.208ZM12.9458 5.625C13.0698 5.625 13.1703 5.72573 13.1703 5.85C13.1703 5.90791 13.1481 5.96359 13.1081 6.00546L9.64725 9.63449C9.40779 9.87447 9.23372 10.1552 9.12506 10.4543C9.03173 10.7017 8.98064 10.9699 8.98064 11.25V21.9593C8.98064 22.0836 8.88012 22.1843 8.75613 22.1843C8.69655 22.1843 8.63942 22.1606 8.59731 22.1184L5.94136 19.4544C5.73104 19.2435 5.6129 18.9575 5.6129 18.6593V10.125C5.6129 7.63972 7.62329 5.625 10.1032 5.625H12.9458ZM52.237 13.2471C51.6092 13.2471 51.048 13.3664 50.5534 13.605C50.0587 13.8436 49.6354 14.1617 49.2835 14.5594C48.9316 14.9571 48.6652 15.4144 48.4845 15.9313C48.3038 16.4483 48.2134 16.9852 48.2134 17.5419C48.2134 18.0986 48.3038 18.6355 48.4845 19.1524C48.6652 19.6694 48.9316 20.1267 49.2835 20.5244C49.6354 20.9221 50.0587 21.2402 50.5534 21.4788C51.048 21.7174 51.6092 21.8367 52.237 21.8367C52.8648 21.8367 53.426 21.7174 53.9206 21.4788C54.4152 21.2402 54.8385 20.9221 55.1904 20.5244C55.5424 20.1267 55.8087 19.6694 55.9895 19.1524C56.1702 18.6355 56.2605 18.0986 56.2605 17.5419C56.2605 16.9852 56.1702 16.4483 55.9895 15.9313C55.8087 15.4144 55.5424 14.9571 55.1904 14.5594C54.8385 14.1617 54.4152 13.8436 53.9206 13.605C53.426 13.3664 52.8648 13.2471 52.237 13.2471ZM76.5782 3.375C77.206 3.375 77.7339 3.5788 78.1619 3.98641C78.59 4.39402 78.804 4.90602 78.804 5.5224C78.804 6.13879 78.59 6.65078 78.1619 7.05839C77.7339 7.466 77.206 7.6698 76.5782 7.6698C75.9504 7.6698 75.432 7.45606 75.0229 7.02856C74.6139 6.60107 74.4094 6.09902 74.4094 5.5224C74.4094 4.94578 74.6139 4.44373 75.0229 4.01624C75.432 3.58874 75.9504 3.375 76.5782 3.375ZM122.778 3.375C123.406 3.375 123.934 3.5788 124.362 3.98641C124.79 4.39402 125.004 4.90602 125.004 5.5224C125.004 6.13879 124.79 6.65078 124.362 7.05839C123.934 7.466 123.406 7.6698 122.778 7.6698C122.15 7.6698 121.632 7.45606 121.223 7.02856C120.814 6.60107 120.609 6.09902 120.609 5.5224C120.609 4.94578 120.814 4.44373 121.223 4.01624C121.632 3.58874 122.15 3.375 122.778 3.375Z" fill="white"/>
</svg>
